<?xml version="1.0" standalone="no"?>
<!DOCTYPE svg PUBLIC "-//W3C//DTD SVG 20010904//EN"
 "http://www.w3.org/TR/2001/REC-SVG-20010904/DTD/svg10.dtd">
<svg version="1.0" xmlns="http://www.w3.org/2000/svg"
 width="1200.000000pt" height="1200.000000pt" viewBox="0 0 1200.000000 1200.000000"
 preserveAspectRatio="xMidYMid meet">

<g transform="translate(0.000000,1200.000000) scale(0.100000,-0.100000)"
fill="#000000" stroke="none">
<path d="M8320 11713 c-169 -13 -433 -81 -637 -164 -542 -219 -947 -544 -1260
-1014 -203 -303 -333 -624 -394 -970 -23 -125 -35 -399 -22 -490 l8 -60 160 1
c320 1 613 89 922 275 285 172 618 488 836 792 335 467 504 1011 472 1521 -6
99 -9 116 -23 114 -10 -1 -37 -3 -62 -5z"/>
<path d="M7970 8999 c-258 -27 -513 -88 -855 -205 -909 -312 -934 -320 -1050
-317 -121 3 -400 85 -853 252 -275 102 -442 151 -707 210 -466 104 -1111 -4
-1624 -270 -493 -257 -885 -623 -1171 -1094 -291 -479 -439 -939 -506 -1575
-31 -293 -22 -760 22 -1130 101 -853 418 -1810 863 -2600 260 -461 687 -1040
1015 -1378 305 -314 582 -496 871 -573 110 -29 133 -32 275 -32 261 0 471 51
935 228 286 110 455 158 705 201 148 26 530 27 678 1 223 -38 427 -97 672
-194 620 -245 998 -285 1385 -146 349 126 674 400 1062 899 469 602 777 1133
1015 1748 62 162 108 291 108 305 0 7 -11 16 -25 21 -14 5 -71 32 -127 61
-429 214 -838 588 -1078 984 -192 319 -297 645 -335 1044 -47 487 34 962 229
1352 121 240 243 408 445 610 153 153 289 265 466 382 66 43 121 80 122 81 8
7 -171 221 -266 319 -406 418 -917 671 -1576 781 -247 42 -504 54 -695 35z"/>
</g>
</svg>
