<svg xmlns="http://www.w3.org/2000/svg" width="22" height="22" viewBox="0 0 22 22">
  <g fill="none" fill-rule="evenodd" transform="translate(1 1)">
    <path fill="#3B579D" d="M18.8651836,19.9363112 C19.4726764,19.9363112 19.9654141,19.4436311 19.9654141,18.8360231 L19.9654141,1.10034582 C19.9654141,0.492564841 19.4726764,0 18.8651836,0 L1.12956399,0 C0.521783011,0 0.0292758064,0.492564841 0.0292758064,1.10034582 L0.0292758064,18.8360231 C0.0292758064,19.4436311 0.521783011,19.9363112 1.12956399,19.9363112 L18.8651836,19.9363112"/>
    <path fill="#FFFFFF" d="M13.335959,19.9808069 L13.335959,12.2604611 L15.9274288,12.2604611 L16.3153826,9.25164265 L13.335959,9.25164265 L13.335959,7.33072046 C13.335959,6.45959654 13.5778034,5.8659366 14.8270253,5.8659366 L16.4203394,5.86518732 L16.4203394,3.17417867 C16.1447198,3.13757925 15.1989561,3.0556196 14.0986679,3.0556196 C11.8014922,3.0556196 10.2289273,4.45775216 10.2289273,7.03279539 L10.2289273,9.25164265 L7.63082933,9.25164265 L7.63082933,12.2604611 L10.2289273,12.2604611 L10.2289273,19.9808069 L13.335959,19.9808069"/>
  </g>
</svg>
