<svg xmlns="http://www.w3.org/2000/svg" width="22" height="22" viewBox="0 0 22 22">
  <g fill="none" fill-rule="evenodd" transform="translate(1 1)">
    <path fill="#EA4335" d="M6.87978142,0.557377049 C9.07650273,-0.202185792 11.5409836,-0.18579235 13.726776,0.617486339 C14.9398907,1.06557377 16.0491803,1.76502732 17,2.64480874 C16.6830601,2.98907104 16.3387978,3.31147541 16.010929,3.64480874 C15.3879781,4.26775956 14.7650273,4.89071038 14.1420765,5.5136612 C13.5245902,4.92349727 12.7704918,4.47540984 11.9508197,4.22404372 C10.989071,3.93442623 9.95081967,3.89071038 8.96721311,4.10382514 C7.81967213,4.34972678 6.75409836,4.95081967 5.92896175,5.79234973 C5.26229508,6.46448087 4.75956284,7.29508197 4.45355191,8.19125683 C3.3442623,7.32786885 2.23497268,6.46994536 1.12021858,5.60655738 C2.29508197,3.2568306 4.40437158,1.40437158 6.87978142,0.557377049 Z"/>
    <path fill="#FBBC05" d="M0.240437158,8.15300546 C0.420765027,7.26775956 0.715846995,6.40437158 1.12568306,5.59562842 C2.23497268,6.45901639 3.3442623,7.31693989 4.45901639,8.18032787 C4.02185792,9.45355191 4.02185792,10.8688525 4.45901639,12.136612 C3.34972678,13 2.24043716,13.863388 1.13114754,14.7213115 C0.103825137,12.715847 -0.207650273,10.3606557 0.240437158,8.15300546 Z"/>
    <path fill="#4285F4" d="M10.2021858,8.2568306 L19.7650273,8.2568306 C20.0819672,10.0437158 20.010929,11.9071038 19.5081967,13.6557377 C19.0437158,15.2568306 18.1639344,16.7431694 16.9344262,17.8743169 C15.8579235,17.0382514 14.7814208,16.2021858 13.704918,15.3661202 C14.7704918,14.6502732 15.5245902,13.4918033 15.7377049,12.2240437 L10.1967213,12.2240437 C10.2021858,10.9016393 10.2021858,9.57923497 10.2021858,8.2568306 Z"/>
    <path fill="#34A853" d="M1.12021858,14.726776 C2.2295082,13.8688525 3.33879781,13.0054645 4.44808743,12.1420765 C4.87431694,13.3934426 5.69398907,14.5027322 6.77595628,15.2622951 C7.45355191,15.7377049 8.2295082,16.0765027 9.03825137,16.2404372 C9.83606557,16.4043716 10.6612022,16.3825137 11.4644809,16.2459016 C12.2622951,16.1038251 13.0327869,15.8142077 13.704918,15.3606557 C14.7814208,16.1967213 15.8579235,17.0327869 16.9344262,17.8688525 C15.7704918,18.9453552 14.3114754,19.6775956 12.7704918,20.0327869 C11.0655738,20.420765 9.26229508,20.431694 7.56830601,19.9781421 C6.22404372,19.6229508 4.96174863,18.9836066 3.87431694,18.1147541 C2.73224044,17.2076503 1.78142077,16.0382514 1.12021858,14.726776 Z"/>
  </g>
</svg>
