<svg xmlns="http://www.w3.org/2000/svg" width="22" height="22" viewBox="0 0 22 22">
  <g fill="none" fill-rule="evenodd" transform="translate(1 1)">
    <path fill="#F25022" d="M0,0 L9.48717949,0 C9.48660969,3.16239316 9.48717949,6.32478632 9.48660969,9.48717949 L0,9.48717949 L0,0"/>
    <path fill="#80BA01" d="M10.4558405,0 L19.9430199,0 C19.9430199,3.16239316 19.9435897,6.32478632 19.9424501,9.48717949 C16.7806268,9.48660969 13.6182336,9.48717949 10.4564103,9.48717949 C10.4552707,6.32478632 10.4558405,3.16239316 10.4558405,0"/>
    <path fill="#02A4EF" d="M0,10.4552707 C3.16239316,10.4564103 6.32478632,10.4547009 9.48717949,10.4564103 C9.48774929,13.6188034 9.48717949,16.7806268 9.48717949,19.9430199 L0,19.9430199 L0,10.4552707"/>
    <path fill="#FFB902" d="M10.4564103,10.4564103 C13.6182336,10.4552707 16.7806268,10.4558405 19.9430199,10.4558405 L19.9430199,19.9430199 L10.4558405,19.9430199 C10.4564103,16.7806268 10.4552707,13.6182336 10.4564103,10.4564103"/>
  </g>
</svg>
